<svg xmlns="http://www.w3.org/2000/svg" version="1.1" xmlns:xlink="http://www.w3.org/1999/xlink" viewBox="0 0 5.997820917755043 4.6567045697181255"><g transform="matrix(1,0,0,1,2.9965709265557137,4.404502434857236)"><g transform="matrix(1,0,0,1,0,0)"><path d=" M -2.493283749636407 -1.9047172613078005 L -1.788657117653741 -1.8817758249803935 L -1.7950351623632044 -1.6858796265852125 L -2.1838291479536402 -1.6985380928708316 L -1.7993631212731975 -1.5529500633884825 L -1.8046998525607076 -1.3890369177925148 L -2.200852749305499 -1.2678639736147366 L -1.8090603525151367 -1.2551078841958097 L -1.8154383972246002 -1.0592116858006286 L -2.5200650292072666 -1.0821531221280356 L -2.5123528016759256 -1.3190276069222082 L -2.0488355936220075 -1.4810300693661511 L -2.500963436123312 -1.668842246913603 L -2.493283749636407 -1.9047172613078005 M -2.114378933176618 -2.1928765272513067 Q -2.1574639043100556 -2.250850101079654 -2.1633154378537296 -2.3153559888356354 Q -2.1691669713974036 -2.3798618765916166 -2.138203517001825 -2.439277905505479 Q -2.1113993325996825 -2.490712676804047 -2.071592858724561 -2.5173293001366424 Q -2.0317863848494397 -2.543945923469238 -1.9865716896443808 -2.546318967403436 L -2.055742588976937 -2.5823659740132143 L -1.9651629313421104 -2.756180028746304 L -1.4676645399887254 -2.4969188658221317 L -1.558244197623552 -2.3231048110890415 L -1.6274150969561083 -2.3591518176988195 Q -1.6034588928286109 -2.3207317671548435 -1.6027033427807489 -2.272413249543837 Q -1.6019477927328871 -2.22409473193283 -1.6282898360246478 -2.173546767035962 Q -1.6592532904202264 -2.1141307381220997 -1.715478204995513 -2.0819747280928422 Q -1.7717031195708 -2.0498187180635847 -1.8443463838591387 -2.052154559140058 Q -1.9169896481474777 -2.054490400216532 -1.994141805095329 -2.0946966768197455 Q -2.07129396204318 -2.1349029534229595 -2.114378933176618 -2.1928765272513067 M -1.8964485034018088 -2.466087668638636 Q -1.9375726646107536 -2.4542532542103372 -1.9574447323571695 -2.416120578937261 Q -1.9777789412139675 -2.3771010972624858 -1.9641334381632058 -2.3372884077465583 Q -1.9504879351124442 -2.2974757182306305 -1.901713583018975 -2.2720579571596335 Q -1.8538260373272055 -2.247102337199018 -1.8124895434726018 -2.258262277871276 Q -1.7711530496179981 -2.269422218543534 -1.7508188407612004 -2.3084417002183093 Q -1.7309467730147843 -2.346574375491385 -1.7448046087112048 -2.387061538763353 Q -1.758662444407625 -2.4275487020353212 -1.8074367965010942 -2.4529664631063186 Q -1.855324342192864 -2.477922083066934 -1.8964485034018088 -2.466087668638636 M -1.3276961403720984 -3.3099035460450965 Q -1.2424077039921544 -3.2982788903571096 -1.1705738658908587 -3.214972829931491 L -0.9570314562624611 -2.9673266321207885 L -1.1054677093844725 -2.8393317933221156 L -1.302031211825291 -3.06728746775949 Q -1.3333768866331293 -3.1036392032179423 -1.37026854170973 -3.108139846028598 Q -1.407160196786331 -3.1126404888392534 -1.4389679653124763 -3.085213023382395 Q -1.4722903894827237 -3.0564794881418766 -1.4732651255086768 -3.019327100739723 Q -1.4742398615346297 -2.982174713337569 -1.4428941867267915 -2.9458229778791174 L -1.246330684285973 -2.717867303441743 L -1.3947669374079843 -2.5898724646430704 L -1.761119511724593 -3.0147333728137253 L -1.6126832586025817 -3.142728211612398 L -1.5604404672561847 -3.0821419858483114 Q -1.5655652697723952 -3.1278993502738315 -1.547589165560152 -3.1744300893325503 Q -1.5296130613479084 -3.2209608283912687 -1.486445375490997 -3.258183817225577 Q -1.4129845767520424 -3.321528201733083 -1.3276961403720984 -3.3099035460450965 M -0.9993304298799229 -3.432213181317467 Q -0.9907923671132159 -3.503937315917975 -0.9507159474526206 -3.5548208160647596 Q -0.9106395277920251 -3.6057043162115443 -0.8473153267944982 -3.627591425843125 Q -0.792497361751863 -3.6465384759719557 -0.7452881085664529 -3.638520595100064 Q -0.6980788553810429 -3.6305027142281725 -0.6636004389844047 -3.6011558438195577 L -0.6890809546749013 -3.674876555428619 L -0.5038340383239273 -3.7389045179329434 L -0.3205703293192016 -3.2086824767446966 L -0.5058172456701756 -3.1446545142403717 L -0.5312977613606722 -3.218375225849433 Q -0.5402956620668138 -3.1740013846489865 -0.5729505131245531 -3.1383796117790568 Q -0.6056053641822925 -3.1027578389091275 -0.6594781918966064 -3.0841374620583797 Q -0.7228023928941333 -3.0622503524267994 -0.785745942020559 -3.077526465262505 Q -0.8486894911469848 -3.0928025780982114 -0.8998584167035611 -3.1444188648436326 Q -0.9510273422601374 -3.196035151589054 -0.9794479174533837 -3.2782620991530065 Q -1.00786849264663 -3.3604890467169595 -0.9993304298799229 -3.432213181317467 M -0.653261216634138 -3.480937914702509 Q -0.6912696394401983 -3.500600310177012 -0.731910544558014 -3.4865533592194304 Q -0.773496587004151 -3.472179734983766 -0.7909420345439282 -3.433879521405551 Q -0.8083874820837055 -3.3955793078273357 -0.7904204517891245 -3.343596754769665 Q -0.7727800947726269 -3.2925593390403147 -0.7350809039916857 -3.2722610382626094 Q -0.6973817132107444 -3.251962737484904 -0.6557956707646073 -3.2663363617205685 Q -0.6151547656467916 -3.28038331267815 -0.5974000860818954 -3.3193194315595673 Q -0.5796454065169991 -3.3582555504409846 -0.59761243681158 -3.410238103498656 Q -0.6152527938280778 -3.461275519228006 -0.653261216634138 -3.480937914702509 M 0.07159120223499565 -3.3985342015402247 L 0.18996867379076193 -3.770539274392819 L 0.39883502150724376 -3.7630660694861042 L 0.18589878676108246 -3.2093259138786863 L -0.05794517899404453 -3.2180506124300656 L -0.23076210318837115 -3.7855929550900758 L -0.021895755471889405 -3.7781197501833614 L 0.07159120223499565 -3.3985342015402247 M 1.2634064900302406 -3.179531802841947 Q 1.2124109684226194 -3.147501242809899 1.1450912945909055 -3.1482505859833925 Q 1.0777716207591916 -3.1489999291568855 1.0022184381138775 -3.1900817571610505 L 0.9170014762929999 -3.2364182375843527 L 0.8033099057698456 -3.0273291972403436 L 0.631118931368897 -3.1209575494358823 L 0.9678943818681562 -3.7403179420515396 L 1.2253023180899825 -3.6003531094326986 Q 1.2999769753557002 -3.5597489771030006 1.3379183652076914 -3.504970323084312 Q 1.3758597550596825 -3.4501916690656227 1.3768976457008302 -3.389298953712988 Q 1.3779355363419774 -3.328406238360353 1.344974534803752 -3.2677879871681825 Q 1.314402011637862 -3.211562362873995 1.2634064900302406 -3.179531802841947 M 1.1692694588844168 -3.3633271220615892 Q 1.2060520258183787 -3.4309735762905333 1.1331344193118542 -3.4706223172712973 L 1.0646094397033135 -3.507882579879726 L 0.9915220015098573 -3.3734681968014346 L 1.060046981118398 -3.3362079341930055 Q 1.1329645876249224 -3.296559193212242 1.1692694588844168 -3.3633271220615892 M 1.5138897892612881 -3.0817861549176753 Q 1.5837560965460056 -3.100115069408103 1.6457832916124517 -3.0814636064041174 Q 1.707810486678898 -3.062812143400132 1.7513727587820578 -3.0119070508335697 Q 1.7890833823937484 -2.9678399557759487 1.7989161928310884 -2.920975087922691 Q 1.8087490032684284 -2.874110220069433 1.7940718935412159 -2.8312781940835494 L 1.8533345386187061 -2.8819924810096165 L 1.9807704390995917 -2.7330760908148974 L 1.554535261042258 -2.3683233348466484 L 1.4270993605613724 -2.5172397250413674 L 1.4863620056388627 -2.567954011967434 Q 1.441776470288585 -2.5600717510272504 1.3966688032226862 -2.57740808200794 Q 1.3515611361567872 -2.59474441298863 1.3145006957108154 -2.6380517305452575 Q 1.2709384236076555 -2.6889568231118197 1.262095653610752 -2.7531211077161215 Q 1.2532528836138486 -2.8172853923204233 1.2825375402087782 -2.883805380956299 Q 1.3118221968037078 -2.950325369592175 1.3779228393901393 -3.0068913050097112 Q 1.4440234819765707 -3.063457240427247 1.5138897892612881 -3.0817861549176753 M 1.6859975225362758 -2.777620199973757 Q 1.6903702216783685 -2.820189314390347 1.6624123455524598 -2.852859746933066 Q 1.6338042862608324 -2.8862899569767784 1.5917757606746865 -2.888492917951165 Q 1.5497472350885406 -2.8906958789255524 1.5079594725339 -2.854935804811018 Q 1.4669314874802528 -2.8198259138622026 1.461853808004804 -2.77731159661325 Q 1.4567761285293552 -2.734797279364297 1.4853841878209826 -2.7013670693205847 Q 1.513342063946891 -2.6686966367778657 1.5560755698663933 -2.6664388786358413 Q 1.5988090757858955 -2.664181120493817 1.640596838340536 -2.699941194608351 Q 1.681624823394183 -2.7350510855571666 1.6859975225362758 -2.777620199973757 M 1.8817049068909264 -2.021120365648934 L 1.72805064137094 -1.9557034971247258 L 1.6947546304454448 -2.033910758018132 Q 1.6105353086927219 -2.231729123807336 1.8065135036373752 -2.315165010008871 L 1.976729306758318 -2.387632798493772 L 1.9497007802423278 -2.4511186926307724 L 2.0996747040732124 -2.5149686900526045 L 2.126703230589203 -2.451482795915604 L 2.2518348480186527 -2.504756413396396 L 2.329003249810683 -2.323499585208149 L 2.203871632381233 -2.270225967727357 L 2.243826845491827 -2.1763772546552693 L 2.0938529216609423 -2.1125272572334373 L 2.053897708550348 -2.206375970305525 L 1.8809216491625789 -2.1327330284938415 Q 1.8597596844502455 -2.123723519655178 1.8546718668712294 -2.110145444965346 Q 1.8495840492922133 -2.096567370275514 1.8593769936820648 -2.0735652347186297 L 1.8817049068909264 -2.021120365648934 M 2.0627397269560612 -1.3670448061600076 L 2.0202023967919764 -1.7355981612424318 Q 1.9748497220121939 -1.7273437751162994 1.9550778606626988 -1.7024123993264166 Q 1.935305999313204 -1.677481023536534 1.939318954989061 -1.642711839094796 Q 1.944937092935261 -1.5940349808763625 1.991054698210389 -1.5782183287752543 L 2.015017776389078 -1.370596627394589 Q 1.9559097443488795 -1.376860855067243 1.9064102092076303 -1.408896710304777 Q 1.856910674066381 -1.4409325655423106 1.8245467520946939 -1.4945756131310761 Q 1.792182830123007 -1.5482186607198416 1.7842715746477458 -1.616763624333554 Q 1.774755136902142 -1.6992162617239615 1.8021290173126576 -1.7673038572995932 Q 1.8295028977231735 -1.8353914528752249 1.8898893007672934 -1.879103377191058 Q 1.9502757038114131 -1.9228153015068907 2.0376953675506404 -1.93290501863476 Q 2.125115031289868 -1.9429947357626294 2.193317282741953 -1.9146274500823495 Q 2.2615195341940373 -1.8862601644020698 2.303684022666998 -1.8261984801781523 Q 2.3458485111399585 -1.766136795954235 2.3554796047620155 -1.6826907532940631 Q 2.3649960425076193 -1.6002381159036556 2.338558239428641 -1.5327618788393589 Q 2.312120436349663 -1.4652856417750622 2.253166813271962 -1.422242403908791 Q 2.1942131901942616 -1.3791991660425196 2.1087803369945624 -1.3693387606675564 Q 2.085932015789991 -1.3667016755091361 2.0627397269560612 -1.3670448061600076 M 2.134526019922384 -1.5736379525665458 Q 2.170288609633886 -1.577765564118856 2.1879016766291732 -1.6039577360604784 Q 2.2055147436244606 -1.630149908002101 2.2013871320721505 -1.6659124977136028 Q 2.1972595205198404 -1.701675087425105 2.175251032601023 -1.7222876190388412 Q 2.1532425446822057 -1.7429001506525772 2.114690553296004 -1.7454970642357086 L 2.134526019922384 -1.5736379525665458 M 2.503840576027702 -0.9565731410710578 L 1.7712191162329525 -1.0608122731098968 L 1.7988283998540502 -1.2548579570555332 L 2.5314498596487995 -1.1506188250166942 L 2.503840576027702 -0.9565731410710578" fill="#390c14" fill-rule="nonzero"></path></g><g transform="matrix(1,0,0,1,0,0)"><g clip-path="url(#SvgjsClipPath1001)"><g clip-path="url(#SvgjsClipPath1000053b2ecf-285f-4e2d-a4de-b90397d46924)"><path d=" M -1.3235772895219864 -0.6287003193503997 L 0.0000014247507840181584 -0.1874947914087879 L 0.0000014247507840181584 -1.7758069209937433 L -1.3235772895219864 -2.1949471232646656 Z" fill="#390c14" transform="matrix(1,0,0,1,0,0)" fill-rule="nonzero"></path></g><g clip-path="url(#SvgjsClipPath1000053b2ecf-285f-4e2d-a4de-b90397d46924)"><path d=" M 0.000004733705842197011 -1.7758097887674165 L 0.000004733705842197011 -0.18749765918246108 L 1.3235708247945908 -0.6287031871240734 L 1.3235708247945908 -2.194949991038339 Z" fill="#a5497e" transform="matrix(1,0,0,1,0,0)" fill-rule="nonzero"></path></g><g clip-path="url(#SvgjsClipPath1000053b2ecf-285f-4e2d-a4de-b90397d46924)"><path d=" M 0.000004733705842197011 -2.6361418908301792 L -1.3235739805669282 -2.194948986072589 L 0.000004733705842197011 -1.7758214069856884 L 1.3235708247945908 -2.194948986072589 Z" fill="#c771a3" transform="matrix(1,0,0,1,0,0)" fill-rule="nonzero"></path></g><g clip-path="url(#SvgjsClipPath1000053b2ecf-285f-4e2d-a4de-b90397d46924)"><path d=" M 0.000004733705842197011 -2.194951038891465 L -0.6617909350225541 -1.9743482749206587 L -0.6617909350225541 -1.1140277910761678 L 0.000004733705842197011 -1.3346179318629516 Z" fill="#a5497e" transform="matrix(1,0,0,1,0,0)" fill-rule="nonzero"></path></g><g clip-path="url(#SvgjsClipPath1000053b2ecf-285f-4e2d-a4de-b90397d46924)"><path d=" M 0.000004733705842197011 -2.194951038891465 L 0.6618004024342385 -1.9743482749206587 L 0.6618004024342385 -1.1140277910761678 L 0.000004733705842197011 -1.3346179318629516 Z" fill="#390c14" transform="matrix(1,0,0,1,0,0)" fill-rule="nonzero"></path></g><g clip-path="url(#SvgjsClipPath1000053b2ecf-285f-4e2d-a4de-b90397d46924)"><path d=" M 0.6617862779080714 -1.1140187771535024 L 0.000003232363697369678 -1.3346215411243083 L -0.6617798131806769 -1.1140187771535024 L 0.000003232363697369678 -0.8934286363667183 Z" fill="#c771a3" transform="matrix(1,0,0,1,0,0)" fill-rule="nonzero"></path></g></g></g></g><defs><clipPath id="SvgjsClipPath1001"><path d=" M -1.3235772895219864 -2.6361418908301792 h 2.6471545790439728 v 2.4486418908301792 h -2.6471545790439728 Z"></path></clipPath><clipPath id="SvgjsClipPath1000053b2ecf-285f-4e2d-a4de-b90397d46924"><path d=" M -1.3235772895219864 -2.6361418908301792 L 1.3235772895219864 -2.6361418908301792 L 1.3235772895219864 -0.1875 L -1.3235772895219864 -0.1875 Z"></path></clipPath></defs></svg>